<?xml version="1.0" encoding="utf-8"?>
<!-- Generator: Adobe Illustrator 19.0.0, SVG Export Plug-In . SVG Version: 6.00 Build 0)  -->
<svg version="1.1" id="Layer_1" xmlns="http://www.w3.org/2000/svg" xmlns:xlink="http://www.w3.org/1999/xlink" x="0px" y="0px"
	 viewBox="0 0 500 500" style="enable-background:new 0 0 500 500;" xml:space="preserve">
<style type="text/css">
	.st0{fill:#FFCD10;}
	.st1{fill:#643949;}
	.st2{fill:#F43E3D;}
</style>
<rect id="XMLID_23_" class="st0" width="500" height="500"/>
<ellipse id="XMLID_20_" class="st1" cx="213" cy="226.3" rx="14.3" ry="16.7"/>
<ellipse id="XMLID_26_" transform="matrix(-0.5566 -0.8308 0.8308 -0.5566 87.7457 589.1147)" class="st2" cx="201.1" cy="271.1" rx="20.2" ry="13.1"/>
<ellipse id="XMLID_28_" class="st1" cx="295.7" cy="226.3" rx="14.3" ry="16.7"/>
<path id="XMLID_35_" class="st1" d="M269.3,264.3c-0.5,0.1-1,0.1-1.5,0.1c-4.2,0-8.4-2-12.6-6c-4.7,4.4-9.4,6.4-14.1,5.9
	c-1.7-0.2-3.2-0.7-4.5-1.4c-0.2,0.8-0.3,1.6-0.3,2.4c0,7.9,8.5,11.8,18.9,11.8c10.4,0,18.9-3.9,18.9-11.8c0-0.8-0.1-1.6-0.3-2.4
	C272.4,263.6,270.9,264.1,269.3,264.3z"/>
<path id="XMLID_33_" class="st2" d="M237.1,269.5c2.5,5.1,9.6,7.7,18,7.7s15.5-2.5,18-7.7c-2.5-3.9-9.6-3.3-18-3.3
	S239.6,265.6,237.1,269.5z"/>
<ellipse id="XMLID_27_" transform="matrix(-0.5566 0.8308 -0.8308 -0.5566 703.96 166.6674)" class="st2" cx="307.5" cy="271.2" rx="20.2" ry="13.1"/>
<ellipse id="XMLID_25_" class="st1" cx="255" cy="242" rx="7" ry="2.6"/>
<g id="XMLID_29_">
	<path id="XMLID_30_" class="st1" d="M267.8,264.8c-4.2,0-8.4-2-12.6-6c-4.7,4.4-9.4,6.4-14.1,5.9c-7.7-0.9-11.9-8.2-12.1-8.6
		c-0.8-1.4-0.3-3.3,1.1-4.1c1.4-0.8,3.3-0.3,4.1,1.1c0,0,2.9,5,7.6,5.5c3.4,0.4,7.1-1.7,11.1-6.1c0.6-0.6,1.4-1,2.2-1h0.2
		c0.8,0,1.7,0.4,2.2,1c4,4.4,7.7,6.5,11.1,6.1c4.6-0.5,7.6-5.5,7.6-5.6c0.8-1.4,2.7-1.9,4.1-1.1c1.4,0.8,1.9,2.6,1.1,4.1
		c-0.2,0.3-4.4,7.7-12.1,8.6C268.8,264.7,268.3,264.8,267.8,264.8z"/>
</g>
</svg>
